Coordinates
version=1
nRows=25
nColumns=38
inDegrees=no

Units are S.I. units (second, meters, Newtons, ...)
If the header above contains a line with 'inDegrees', this indicates whether rotational values are in degrees (yes) or radians (no).

endheader
time	pelvis_tilt	pelvis_list	pelvis_rotation	pelvis_tx	pelvis_ty	pelvis_tz	hip_flexion_r	hip_adduction_r	hip_rotation_r	knee_angle_r	ankle_angle_r	subtalar_angle_r	mtp_angle_r	hip_flexion_l	hip_adduction_l	hip_rotation_l	knee_angle_l	ankle_angle_l	subtalar_angle_l	mtp_angle_l	lumbar_extension	lumbar_bending	lumbar_rotation	arm_flex_r	arm_add_r	arm_rot_r	elbow_flex_r	pro_sup_r	wrist_flex_r	wrist_dev_r	arm_flex_l	arm_add_l	arm_rot_l	elbow_flex_l	pro_sup_l	wrist_flex_l	wrist_dev_l
2.69	-0.408929	-0.0909952	0.0145715	0.681518	0.956337	-0.335343	1.22113	-0.0803944	-0.130064	-2.1646	0.272323	0.0999995	0.0182342	0.477072	-0.14426	-0.28403	-0.76	0.597152	0.0999997	0.0688765	0.198789	0.0528571	-0.237698	-0.475364	-0.435695	0.14489	1.10433	1.43215	0.0999999	0.0289822	0.0277047	-0.704634	0.341964	1.97453	1.52206	0.0999997	-0.0276507
2.7	-0.393742	-0.0907969	0.00894261	0.683792	0.965304	-0.335577	1.24188	-0.0730839	-0.123662	-2.07622	0.291454	0.0999995	0.0182342	0.381627	-0.147951	-0.310077	-0.69916	0.514619	0.0999997	0.0688765	0.184539	0.0619475	-0.251717	-0.501938	-0.445535	0.1413	1.12433	1.41997	0.0999999	0.0289822	0.0435786	-0.686818	0.321336	2.01421	1.508	0.0999997	-0.0276507
2.71	-0.379469	-0.0905417	0.0038298	0.686706	0.974628	-0.335881	1.25215	-0.0675937	-0.120063	-1.97495	0.30904	0.0999995	0.0182342	0.290026	-0.151235	-0.337855	-0.63989	0.419872	0.0999997	0.0688765	0.172902	0.0713008	-0.264994	-0.529762	-0.455449	0.133623	1.14832	1.41148	0.0999999	0.0289822	0.0532646	-0.670386	0.303638	2.05654	1.49078	0.0999997	-0.0276507
2.72	-0.367934	-0.0902171	-0.000318989	0.689926	0.983662	-0.336224	1.2543	-0.0641635	-0.119379	-1.86246	0.32457	0.0999995	0.0182342	0.207195	-0.154486	-0.365106	-0.588482	0.320867	0.0999997	0.0688765	0.165419	0.0804975	-0.277742	-0.558378	-0.464535	0.121076	1.17457	1.40863	0.0999999	0.0289822	0.0580493	-0.656444	0.290271	2.10041	1.47298	0.0999997	-0.0276507
2.73	-0.360505	-0.0895966	-0.00308914	0.693113	0.991894	-0.336583	1.25045	-0.0628528	-0.121546	-1.74001	0.338019	0.0999995	0.0182342	0.137035	-0.157869	-0.389317	-0.550534	0.225807	0.0999997	0.0688765	0.163064	0.0889036	-0.290059	-0.587164	-0.471882	0.103365	1.2015	1.41173	0.0999999	0.0289822	0.0592414	-0.64583	0.282096	2.1442	1.45735	0.0999997	-0.0276507
2.74	-0.357865	-0.0882516	-0.00418203	0.695978	0.999009	-0.33695	1.24212	-0.0635577	-0.126411	-1.60857	0.349786	0.0999995	0.0182342	0.0819677	-0.161232	-0.407999	-0.530349	0.14187	0.0999997	0.0688765	0.166081	0.0957342	-0.301881	-0.61535	-0.476724	0.0808196	1.22775	1.41922	0.0999999	0.0289822	0.0579476	-0.639017	0.279374	2.18592	1.4462	0.0999997	-0.0276507
2.75	-0.359926	-0.0856711	-0.00351368	0.698351	1.00488	-0.337329	1.23002	-0.0659713	-0.133872	-1.46895	0.360462	0.0999995	0.0182342	0.042757	-0.164185	-0.419154	-0.53058	0.07409	0.0999997	0.0688765	0.173959	0.100233	-0.312937	-0.642069	-0.478578	0.0544055	1.25224	1.4281	0.0999999	0.0289822	0.0548897	-0.63606	0.281785	2.22341	1.44072	0.0999997	-0.0276507
2.76	-0.36586	-0.0814547	-0.00129706	0.700196	1.00953	-0.337702	1.2141	-0.0695328	-0.143975	-1.32214	0.370441	0.0999995	0.0182342	0.0185877	-0.166253	-0.421689	-0.552146	0.0247297	0.0999997	0.0688765	0.185531	0.101887	-0.322742	-0.666427	-0.477351	0.0255962	1.27418	1.43473	0.0999999	0.0289822	0.0503107	-0.636609	0.288512	2.25448	1.44067	0.0999997	-0.0276507
2.77	-0.374318	-0.0754287	0.00195926	0.701579	1.01301	-0.338035	1.19376	-0.0734483	-0.156908	-1.16956	0.379537	0.0999995	0.0182342	0.00744587	-0.16702	-0.415565	-0.594419	-0.00662428	0.0999997	0.0688765	0.199214	0.100592	-0.330672	-0.687592	-0.473387	-0.00386365	1.29315	1.43577	0.0999999	0.0289822	0.0439917	-0.639964	0.298377	2.27722	1.44442	0.0999997	-0.0276507
2.78	-0.383736	-0.0676878	0.00552764	0.702631	1.01542	-0.338281	1.16826	-0.0767853	-0.172856	-1.01331	0.386673	0.0999995	0.0182342	0.00664403	-0.166176	-0.401621	-0.655533	-0.0223904	0.0999997	0.0688765	0.213317	0.0967014	-0.336069	-0.70484	-0.467433	-0.0322278	1.30905	1.42896	0.0999999	0.0289822	0.0353686	-0.64519	0.309993	2.29014	1.44946	0.0999997	-0.0276507
2.79	-0.392644	-0.0585739	0.00857854	0.703505	1.01683	-0.338402	1.1371	-0.0785945	-0.191766	-0.856295	0.389803	0.0999995	0.0182342	0.0133529	-0.163563	-0.381363	-0.732812	-0.0260368	0.0999997	0.0688765	0.22633	0.09097	-0.338366	-0.71758	-0.460547	-0.057962	1.32207	1.41372	0.0999999	0.0289822	0.0237103	-0.651244	0.321923	2.29234	1.45328	0.0999997	-0.0276507
2.8	-0.399916	-0.048617	0.0103094	0.704327	1.0173	-0.338361	1.10035	-0.0780285	-0.213087	-0.702234	0.386185	0.0999995	0.0182342	0.0250382	-0.159242	-0.356775	-0.823204	-0.0212266	0.0999997	0.0688765	0.237138	0.0844227	-0.337173	-0.725332	-0.453951	-0.079855	1.33258	1.39128	0.0999999	0.0289822	0.00831547	-0.65711	0.33282	2.28353	1.45413	0.0999997	-0.0276507
2.81	-0.404916	-0.038466	0.0100502	0.70518	1.01686	-0.338138	1.05886	-0.0744487	-0.235627	-0.555597	0.373104	0.0999995	0.0182342	0.0397596	-0.15356	-0.330112	-0.923677	-0.0112509	0.0999997	0.0688765	0.245115	0.0781927	-0.332329	-0.727688	-0.448863	-0.0970275	1.34103	1.36439	0.0999999	0.0289822	-0.0113104	-0.661912	0.341561	2.26398	1.45158	0.0999997	-0.0276507
2.82	-0.407494	-0.0288224	0.0073469	0.7061	1.01553	-0.337726	1.01426	-0.067529	-0.257607	-0.421484	0.348935	0.0999995	0.0182342	0.0563165	-0.147192	-0.303611	-1.03153	0.00125681	0.0999997	0.0688765	0.250105	0.0733678	-0.323906	-0.724267	-0.446339	-0.108877	1.34784	1.33655	0.0999999	0.0289822	-0.035318	-0.665011	0.347365	2.23441	1.44661	0.0999997	-0.0276507
2.83	-0.40788	-0.0203813	0.00201408	0.707049	1.01333	-0.337119	0.968889	-0.0573264	-0.276901	-0.305487	0.314241	0.0999995	0.0182342	0.0742386	-0.141108	-0.279196	-1.14458	0.0144396	0.0999997	0.0688765	0.252275	0.0708702	-0.312183	-0.714695	-0.447139	-0.115025	1.35334	1.3111	0.0999999	0.0289822	-0.0634303	-0.666047	0.349904	2.19581	1.44118	0.0999997	-0.0276507
2.84	-0.406499	-0.0137791	-0.00584767	0.707896	1.01026	-0.336308	0.925572	-0.0443228	-0.291439	-0.213512	0.272522	0.0999995	0.0182342	0.093667	-0.136472	-0.258221	-1.26124	0.0272374	0.0999997	0.0688765	0.251921	0.0713785	-0.297591	-0.698605	-0.45163	-0.115296	1.35773	1.29048	0.0999999	0.0289822	-0.0949228	-0.664963	0.349369	2.14935	1.43747	0.0999997	-0.0276507
2.85	-0.403821	-0.0095426	-0.0158675	0.708458	1.00632	-0.335299	0.887269	-0.029419	-0.299777	-0.151336	0.230222	0.0999995	0.0182342	0.115208	-0.13445	-0.241283	-1.3804	0.0392559	0.0999997	0.0688765	0.249305	0.0752798	-0.280662	-0.675684	-0.459748	-0.109736	1.36116	1.27572	0.0999999	0.0289822	-0.128678	-0.661972	0.346494	2.09618	1.43706	0.0999997	-0.0276507
2.86	-0.400302	-0.00802389	-0.0274447	0.708566	1.00154	-0.334111	0.856554	-0.0137593	-0.301455	-0.123554	0.19561	0.0999995	0.0182342	0.139849	-0.135976	-0.228135	-1.50125	0.0505295	0.0999997	0.0688765	0.244631	0.0826656	-0.26197	-0.645742	-0.471011	-0.098662	1.36371	1.26657	0.0999999	0.0289822	-0.163316	-0.657495	0.342467	2.03746	1.44047	0.0999997	-0.0276507
2.87	-0.396384	-0.00935018	-0.0398182	0.708089	0.995946	-0.332821	0.835065	0.0015403	-0.296768	-0.132272	0.17706	0.0999995	0.0182342	0.168908	-0.141526	-0.217776	-1.62303	0.061284	0.0999997	0.0688765	0.238116	0.0933179	-0.242079	-0.608786	-0.484578	-0.0826929	1.36546	1.26189	0.0999999	0.0289822	-0.197378	-0.65208	0.338766	1.97427	1.44708	0.0999997	-0.0276507
2.88	-0.39255	-0.0133799	-0.0521487	0.706943	0.989549	-0.331539	0.82317	0.0155702	-0.286664	-0.176257	0.181395	0.0999995	0.0182342	0.203947	-0.150958	-0.208671	-1.74479	0.071773	0.0999997	0.0688765	0.230102	0.106708	-0.221503	-0.565107	-0.499346	-0.06276	1.36653	1.26028	0.0999999	0.0289822	-0.229544	-0.646315	0.336913	1.90774	1.45553	0.0999997	-0.0276507
2.89	-0.389347	-0.0196983	-0.063624	0.705082	0.982404	-0.330385	0.819815	0.0277261	-0.272632	-0.250608	0.212415	0.0999995	0.0182342	0.246612	-0.163478	-0.199101	-1.8651	0.0822217	0.0999997	0.0688765	0.221142	0.122023	-0.20066	-0.515334	-0.514081	-0.0400679	1.36709	1.26056	0.0999999	0.0289822	-0.25884	-0.640754	0.338208	1.83906	1.46425	0.0999997	-0.0276507
2.9	-0.387357	-0.0276583	-0.0735698	0.702484	0.974717	-0.329469	0.82253	0.0377322	-0.256484	-0.346976	0.269794	0.0999995	0.0182342	0.298374	-0.177742	-0.187568	-1.98196	0.0928579	0.0999997	0.0688765	0.212003	0.13823	-0.179841	-0.460478	-0.527553	-0.0160354	1.36742	1.26214	0.0999999	0.0289822	-0.284791	-0.635856	0.343502	1.76958	1.47206	0.0999997	-0.0276507
2.91	-0.387098	-0.0364418	-0.0815286	0.699217	0.96689	-0.328855	0.827628	0.0455828	-0.239989	-0.454411	0.348731	0.0999995	0.0182342	0.360192	-0.192071	-0.173154	-2.09273	0.103979	0.0999997	0.0688765	0.203576	0.15418	-0.159177	-0.401951	-0.538665	0.00776863	1.36795	1.26507	0.0999999	0.0289822	-0.307512	-0.631949	0.353058	1.70089	1.47851	0.0999997	-0.0276507
2.92	-0.388876	-0.0451166	-0.0872779	0.695457	0.959416	-0.328553	0.830685	0.0513493	-0.224618	-0.560943	0.440818	0.0999995	0.0182342	0.432176	-0.204648	-0.155768	-2.19425	0.115928	0.0999997	0.0688765	0.196725	0.168672	-0.138656	-0.341559	-0.546551	0.0296867	1.36936	1.26989	0.0999999	0.0289822	-0.327706	-0.629245	0.366527	1.63485	1.48387	0.0999997	-0.0276507
2.93	-0.392644	-0.0526442	-0.0907684	0.691451	0.952792	-0.328514	0.827402	0.0548336	-0.211555	-0.655889	0.536368	0.0999995	0.0182342	0.513326	-0.213651	-0.136189	-2.28305	0.12896	0.0999997	0.0688765	0.192082	0.180455	-0.118169	-0.281441	-0.550634	0.0480524	1.37262	1.27726	0.0999999	0.0289822	-0.34658	-0.627884	0.383033	1.57354	1.48879	0.0999997	-0.0276507
